<svg width="32" height="32" viewBox="0 0 32 32" fill="none" xmlns="http://www.w3.org/2000/svg">
<path d="M12.6666 8.66669V12.6667H8.66663V8.66669H12.6666ZM14.6666 6.66669H6.66663V14.6667H14.6666V6.66669ZM12.6666 19.3334V23.3334H8.66663V19.3334H12.6666ZM14.6666 17.3334H6.66663V25.3334H14.6666V17.3334ZM23.3333 8.66669V12.6667H19.3333V8.66669H23.3333ZM25.3333 6.66669H17.3333V14.6667H25.3333V6.66669ZM17.3333 17.3334H19.3333V19.3334H17.3333V17.3334ZM19.3333 19.3334H21.3333V21.3334H19.3333V19.3334ZM21.3333 17.3334H23.3333V19.3334H21.3333V17.3334ZM17.3333 21.3334H19.3333V23.3334H17.3333V21.3334ZM19.3333 23.3334H21.3333V25.3334H19.3333V23.3334ZM21.3333 21.3334H23.3333V23.3334H21.3333V21.3334ZM23.3333 19.3334H25.3333V21.3334H23.3333V19.3334ZM23.3333 23.3334H25.3333V25.3334H23.3333V23.3334ZM28 9.33335C27.2666 9.33335 26.6666 8.73335 26.6666 8.00002V5.33335H24C23.2666 5.33335 22.6666 4.73335 22.6666 4.00002C22.6666 3.26669 23.2666 2.66669 24 2.66669H28C28.7333 2.66669 29.3333 3.26669 29.3333 4.00002V8.00002C29.3333 8.73335 28.7333 9.33335 28 9.33335ZM29.3333 28V24C29.3333 23.2667 28.7333 22.6667 28 22.6667C27.2666 22.6667 26.6666 23.2667 26.6666 24V26.6667H24C23.2666 26.6667 22.6666 27.2667 22.6666 28C22.6666 28.7334 23.2666 29.3334 24 29.3334H28C28.7333 29.3334 29.3333 28.7334 29.3333 28ZM3.99996 29.3334H7.99996C8.73329 29.3334 9.33329 28.7334 9.33329 28C9.33329 27.2667 8.73329 26.6667 7.99996 26.6667H5.33329V24C5.33329 23.2667 4.73329 22.6667 3.99996 22.6667C3.26663 22.6667 2.66663 23.2667 2.66663 24V28C2.66663 28.7334 3.26663 29.3334 3.99996 29.3334ZM2.66663 4.00002V8.00002C2.66663 8.73335 3.26663 9.33335 3.99996 9.33335C4.73329 9.33335 5.33329 8.73335 5.33329 8.00002V5.33335H7.99996C8.73329 5.33335 9.33329 4.73335 9.33329 4.00002C9.33329 3.26669 8.73329 2.66669 7.99996 2.66669H3.99996C3.26663 2.66669 2.66663 3.26669 2.66663 4.00002Z" fill="white"/>
</svg>
