<svg width="32" height="32" viewBox="0 0 32 32" fill="none" xmlns="http://www.w3.org/2000/svg">
<path d="M24 10.6667H21.3334C20.6 10.6667 20 11.2667 20 12C20 12.7334 20.6 13.3334 21.3334 13.3334H24V28H8.00004V13.3334H10.6667C11.4 13.3334 12 12.7334 12 12C12 11.2667 11.4 10.6667 10.6667 10.6667H8.00004C6.53337 10.6667 5.33337 11.8667 5.33337 13.3334V28C5.33337 29.4667 6.53337 30.6667 8.00004 30.6667H24C25.4667 30.6667 26.6667 29.4667 26.6667 28V13.3334C26.6667 11.8667 25.4667 10.6667 24 10.6667Z" fill="white"/>
<path d="M16 21.3333C16.7333 21.3333 17.3333 20.7333 17.3333 20V6.66668H19.72C20.32 6.66668 20.6133 5.94668 20.1866 5.53334L16.4666 1.81334C16.2 1.54668 15.7866 1.54668 15.52 1.81334L11.8 5.53334C11.7078 5.62734 11.6456 5.7465 11.621 5.87582C11.5965 6.00513 11.6108 6.13882 11.6622 6.26002C11.7135 6.38122 11.7996 6.48451 11.9095 6.55688C12.0194 6.62924 12.1483 6.66745 12.28 6.66668H14.6666V20C14.6666 20.7333 15.2666 21.3333 16 21.3333Z" fill="white"/>
</svg>
