<svg width="32" height="32" viewBox="0 0 32 32" fill="none" xmlns="http://www.w3.org/2000/svg">
<path d="M26.76 8.4667H20V10.3467H26.7866L26.76 8.4667ZM25.3333 21.4C24.8205 21.7398 24.2149 21.9122 23.6 21.8934C23.1929 21.9358 22.7815 21.8938 22.3915 21.7699C22.0015 21.646 21.6412 21.4429 21.3333 21.1734C20.764 20.5279 20.4676 19.6865 20.5066 18.8267H29.3333C29.3969 17.9314 29.3204 17.0317 29.1066 16.16C28.8998 15.3307 28.5379 14.5481 28.04 13.8534C27.5388 13.1795 26.8915 12.6279 26.1466 12.24C25.3179 11.8314 24.4039 11.6258 23.48 11.64C22.611 11.6337 21.7497 11.8014 20.9466 12.1334C20.2113 12.4434 19.545 12.8966 18.9866 13.4667C18.4298 14.0482 17.9986 14.7381 17.72 15.4934C17.4209 16.3088 17.2718 17.1716 17.28 18.04C17.2662 18.9208 17.4108 19.797 17.7066 20.6267C17.9579 21.3781 18.3569 22.0716 18.88 22.6667C19.4212 23.2509 20.0863 23.7065 20.8266 24C21.6521 24.3145 22.5301 24.4684 23.4133 24.4534C24.6525 24.492 25.876 24.1676 26.9333 23.52C28.0012 22.7612 28.77 21.6527 29.1066 20.3867H26.16C26.0022 20.8055 25.7119 21.1614 25.3333 21.4ZM20.76 15.9067C20.8637 15.5743 21.036 15.2673 21.2656 15.0055C21.4953 14.7437 21.7772 14.5329 22.0933 14.3867C22.5119 14.1983 22.9677 14.1071 23.4266 14.12C23.7581 14.0917 24.0918 14.1354 24.4048 14.2482C24.7178 14.361 25.0027 14.5401 25.24 14.7734C25.693 15.3279 25.9837 15.9971 26.08 16.7067H20.5466C20.5682 16.4357 20.6173 16.1677 20.6933 15.9067H20.76ZM13.7066 15.2667C14.3852 14.9841 14.9749 14.5234 15.4133 13.9334C15.8163 13.3067 16.0164 12.5711 15.9866 11.8267C16.0128 11.1478 15.8804 10.4722 15.6 9.85336C15.3644 9.31725 14.9862 8.85606 14.5066 8.52003C13.9982 8.17066 13.4208 7.93425 12.8133 7.8267C12.0944 7.67591 11.3611 7.60438 10.6266 7.61336H2.66663V24.3867H10.8C11.5422 24.3872 12.2815 24.2931 13 24.1067C13.681 23.9305 14.3261 23.6373 14.9066 23.24C15.4689 22.8503 15.9268 22.3283 16.24 21.72C16.5865 21.0397 16.7562 20.2832 16.7333 19.52C16.7585 18.5743 16.4933 17.6436 15.9733 16.8534C15.4141 16.0586 14.5847 15.4946 13.64 15.2667H13.7066ZM6.35996 10.48H9.81329C10.1306 10.4796 10.4473 10.5064 10.76 10.56C11.0479 10.6027 11.3244 10.7024 11.5733 10.8534C11.8138 10.9894 12.0086 11.1935 12.1333 11.44C12.2877 11.7357 12.3613 12.0668 12.3466 12.4C12.3715 12.687 12.3276 12.9758 12.2186 13.2424C12.1096 13.5091 11.9387 13.7459 11.72 13.9334C11.2428 14.2614 10.6718 14.4252 10.0933 14.4H6.35996V10.48ZM12.8133 20.4C12.6763 20.6718 12.4692 20.9019 12.2133 21.0667C11.947 21.2323 11.6537 21.3497 11.3466 21.4134C11.0054 21.4897 10.6563 21.5256 10.3066 21.52H6.30663V16.92H10.3066C10.993 16.89 11.6709 17.0816 12.24 17.4667C12.497 17.6974 12.6962 17.9854 12.8213 18.3074C12.9464 18.6294 12.9939 18.9763 12.96 19.32C12.996 19.6865 12.9458 20.0564 12.8133 20.4Z" fill="white"/>
</svg>
