<svg width="242" height="244" viewBox="0 0 242 244" fill="none" xmlns="http://www.w3.org/2000/svg">
<g clip-path="url(#clip0_606_75)">
<path d="M121 24.7298C133.902 24.7068 146.675 27.3086 158.548 32.3779C181.803 42.3427 200.326 60.942 210.25 84.2929C215.283 96.2209 217.877 109.043 217.877 121.998C217.877 134.953 215.283 147.776 210.25 159.704C200.323 183.052 181.801 201.651 158.548 211.619C146.669 216.673 133.9 219.277 120.998 219.277C108.097 219.277 95.327 216.673 83.448 211.619C60.1933 201.654 41.6705 183.054 31.7468 159.704C26.7134 147.776 24.1196 134.953 24.1196 121.998C24.1196 109.043 26.7134 96.2209 31.7468 84.2929C41.6677 60.9399 60.1912 42.3399 83.448 32.3779C95.3225 27.3076 108.097 24.7059 121 24.7298ZM121 0.5C54.45 0.5 0 55.175 0 122C0 188.825 54.45 243.5 121 243.5C187.55 243.5 242 188.825 242 122C242 55.175 187.546 0.5 121 0.5Z" fill="white"/>
<path d="M193.597 122C193.39 81.9015 160.968 49.2791 121 49.2791C80.9651 49.2791 48.5014 81.8207 48.4035 121.996V146.296H72.6035L56.5168 162.516L80.6469 186.746L120.864 146.293H121.175L161.346 186.746L185.476 162.516L169.438 146.296H193.59L193.597 122ZM145.13 121.877L145.008 121.996H96.9259L96.863 121.933L96.8 121.996H72.5196C72.6283 109.159 77.7831 96.8836 86.8623 87.8441C95.9415 78.8046 108.209 73.7325 120.995 73.7325C133.78 73.7325 146.048 78.8046 155.127 87.8441C164.206 96.8836 169.362 109.159 169.47 121.996H145.245L145.13 121.877Z" fill="white"/>
</g>
<defs>
<clipPath id="clip0_606_75">
<rect width="242" height="243" fill="white" transform="translate(0 0.5)"/>
</clipPath>
</defs>
</svg>
